# xmcd CD database file
#
# Track frame offsets:
#	150
#	33985
#	58881
#	96246
#	118876
#	137444
#	165189
#	178677
#	201770
#	239357
#	269043
#	279692
#	300215
#
# Disc length: 4398 seconds
#
# Revision: 0
# Processed by: cddbd v1.5.2PL0 Copyright (c) Steve Scherf et al.
# Submitted via: CDex 1.51
#
DISCID=b7112c0d
DTITLE=John Mayall's Bluesbreakers - Live in 1967 - Volume Two
DYEAR=2016
DGENRE=Blues
TTITLE0=Tears in my Eyes
TTITLE1=Your Funeral and my Trial
TTITLE2=So Many Roads
TTITLE3=Bye Bye Bird
TTITLE4=Please Don't Tell
TTITLE5=Sweet Little Angel
TTITLE6=Talk to Your Daughter
TTITLE7=Bad Boy
TTITLE8=Stormy Monday
TTITLE9=Greeny
TTITLE10=Ridin' on the L and N
TTITLE11=Chicago Line
TTITLE12=Double Trouble
EXTD=YEAR: 2016
EXTT0=
EXTT1=
EXTT2=
EXTT3=
EXTT4=
EXTT5=
EXTT6=
EXTT7=
EXTT8=
EXTT9=
EXTT10=
EXTT11=
EXTT12=
PLAYORDER=
